<?xml version="1.0" encoding="utf-8"?>
<!-- Generator: Adobe Illustrator 24.1.2, SVG Export Plug-In . SVG Version: 6.00 Build 0)  -->
<svg version="1.1" id="Layer_1" xmlns="http://www.w3.org/2000/svg" xmlns:xlink="http://www.w3.org/1999/xlink" x="0px" y="0px"
	 width="613.55px" height="154.1px" viewBox="0 0 613.55 154.1" style="enable-background:new 0 0 613.55 154.1;"
	 xml:space="preserve">
<style type="text/css">
	.st0{fill:none;}
	.st1{fill:#878686;}
	.st2{font-family:'Helvetica-Bold';}
	.st3{font-size:25px;}
	.st4{fill:#00537F;}
</style>
<rect x="11.74" y="28.9" class="st0" width="23.3" height="19.12"/>
<text transform="matrix(1 0 0 1 11.7409 46.8741)" class="st1 st2 st3">®</text>
<g>
	<rect x="-23.31" y="-40.59" class="st0" width="671.62" height="234.95"/>
	<g>
		<g>
			<path class="st4" d="M125.92,24.7C96.99,8.03,59.89,17.95,43.15,46.86c0,0.01-0.02,0.04-0.03,0.04
				c-0.01,0.02-0.01,0.05-0.03,0.06c-16.66,28.93-6.7,66.05,22.22,82.74c28.95,16.72,66.09,6.76,82.8-22.19
				C164.81,78.58,154.86,41.43,125.92,24.7z M151.14,90.33c-1.03-8.13-5.01-16.77-11.43-24.92c1.48-10.27,0.62-19.81-2.58-27.37
				C150.25,51.96,155.52,71.72,151.14,90.33z M66.61,60.45c4.61-7.99,10.26-14.89,16.3-20.37c9.09,1.35,18.9,4.73,28.28,10.14
				c9.38,5.43,17.21,12.24,22.95,19.44c-1.74,7.96-4.89,16.32-9.5,24.31c-4.63,8-10.28,14.89-16.32,20.38
				c-9.07-1.36-18.9-4.74-28.29-10.16c-9.38-5.41-17.21-12.23-22.93-19.4C58.82,76.81,61.97,68.47,66.61,60.45z M53.49,79.7
				c-6.78-10.57-8.84-21.38-4.29-29.27c4.57-7.92,14.95-11.52,27.51-10.94c-5.22,5.25-10.05,11.5-14.16,18.61
				C58.43,65.25,55.45,72.57,53.49,79.7z M137.74,74.74c6.78,10.56,8.83,21.38,4.28,29.27c-4.56,7.9-14.95,11.52-27.5,10.93
				c5.22-5.25,10.05-11.5,14.18-18.63C132.78,89.19,135.8,81.88,137.74,74.74z M123.57,28.78c9.08,5.23,13.03,17.38,11.89,31.73
				c-5.67-6.05-12.65-11.68-20.76-16.37c-8.13-4.68-16.49-7.9-24.56-9.8C102.01,26.18,114.51,23.54,123.57,28.78z M108.78,21.69
				c-8.15,1.02-16.83,5.02-25,11.45c-10.25-1.5-19.74-0.62-27.29,2.55C70.42,22.56,90.18,17.27,108.78,21.69z M40.08,64.12
				c1.03,8.12,5.02,16.77,11.43,24.91c-1.49,10.26-0.6,19.81,2.57,27.36C40.99,102.47,35.7,82.73,40.08,64.12z M67.65,125.65
				c-9.06-5.23-13.03-17.38-11.9-31.72c5.68,6.05,12.64,11.67,20.77,16.37c8.11,4.69,16.49,7.92,24.57,9.8
				C89.21,128.26,76.7,130.89,67.65,125.65z M82.45,132.76c8.14-1.02,16.82-5.05,24.98-11.46c10.26,1.48,19.74,0.61,27.29-2.55
				C120.79,131.85,101.06,137.16,82.45,132.76z"/>
			<polygon class="st1" points="114.75,64.77 84.11,67.84 90.5,74.4 76.49,82.45 80.19,88.89 94.2,80.85 96.64,89.67 			"/>
		</g>
		<g>
			<g>
				<path class="st1" d="M194.04,41.71c-0.29-2.04-2.24-3.58-4.47-3.58c-4.04,0-5.56,3.44-5.56,7.02c0,3.41,1.52,6.85,5.56,6.85
					c2.75,0,4.3-1.89,4.64-4.59h4.36c-0.46,5.1-3.98,8.37-9,8.37c-6.33,0-10.06-4.73-10.06-10.63c0-6.08,3.73-10.8,10.06-10.8
					c4.5,0,8.28,2.64,8.83,7.37H194.04z"/>
				<path class="st1" d="M201.64,34.84h15.3v3.78h-10.8V43h9.92v3.5h-9.92v5.02h11.03v3.78h-15.53V34.84z"/>
				<path class="st1" d="M220.21,34.84h9.23c5.1,0,7.08,3.24,7.08,6.56c0,3.32-1.98,6.56-7.08,6.56h-4.73v7.34h-4.5V34.84z
					 M224.71,44.46h3.5c2.09,0,3.96-0.46,3.96-3.07c0-2.61-1.86-3.07-3.96-3.07h-3.5V44.46z"/>
				<path class="st1" d="M239.32,34.84h4.5V55.3h-4.5V34.84z"/>
				<path class="st1" d="M250.85,48.51c0,2.72,2.12,3.78,4.53,3.78c1.58,0,3.98-0.46,3.98-2.55c0-2.21-3.07-2.58-6.08-3.38
					c-3.04-0.8-6.1-1.98-6.1-5.82c0-4.18,3.95-6.19,7.65-6.19c4.27,0,8.2,1.86,8.2,6.59h-4.36c-0.14-2.46-1.89-3.09-4.04-3.09
					c-1.43,0-3.09,0.6-3.09,2.32c0,1.58,0.97,1.78,6.1,3.1c1.49,0.37,6.08,1.32,6.08,5.96c0,3.75-2.95,6.56-8.51,6.56
					c-4.53,0-8.77-2.24-8.71-7.28H250.85z"/>
			</g>
			<g>
				<path class="st1" d="M195.05,72.73c-0.57-2.89-2.89-4.36-5.73-4.36c-4.87,0-6.93,4.01-6.93,8.28c0,4.67,2.06,8.57,6.96,8.57
					c3.58,0,5.65-2.52,5.9-5.9h2.72c-0.52,5.1-3.7,8.2-8.85,8.2c-6.36,0-9.46-4.7-9.46-10.66c0-5.93,3.38-10.77,9.69-10.77
					c4.27,0,7.8,2.29,8.43,6.65H195.05z"/>
				<path class="st1" d="M207,71.87c4.7,0,7.19,3.41,7.19,7.76c0,4.33-2.49,7.74-7.19,7.74c-4.7,0-7.19-3.41-7.19-7.74
					C199.8,75.28,202.3,71.87,207,71.87z M207,85.22c2.55,0,4.61-2.01,4.61-5.59c0-3.61-2.06-5.61-4.61-5.61
					c-2.55,0-4.61,2-4.61,5.61C202.38,83.21,204.45,85.22,207,85.22z"/>
				<path class="st1" d="M228.98,87.03h-2.29v-2.35h-0.06c-1.03,1.83-2.69,2.69-4.81,2.69c-3.9,0-5.1-2.23-5.1-5.42v-9.74h2.44
					v10.03c0,1.8,1.15,2.98,3.01,2.98c2.95,0,4.38-1.98,4.38-4.64v-8.37h2.44V87.03z"/>
				<path class="st1" d="M232.3,72.21h2.29v2.35h0.06c1.03-1.83,2.69-2.69,4.81-2.69c3.9,0,5.1,2.23,5.1,5.42v9.74h-2.43V77
					c0-1.81-1.15-2.98-3.01-2.98c-2.95,0-4.38,1.98-4.38,4.64v8.37h-2.44V72.21z"/>
				<path class="st1" d="M257.95,76.97c-0.37-1.86-1.66-2.95-3.67-2.95c-3.52,0-4.61,2.78-4.61,5.79c0,2.72,1.23,5.42,4.33,5.42
					c2.35,0,3.75-1.38,4.07-3.61h2.5c-0.55,3.61-2.81,5.76-6.54,5.76c-4.53,0-6.94-3.15-6.94-7.57c0-4.44,2.29-7.94,6.99-7.94
					c3.35,0,6.05,1.58,6.39,5.1H257.95z"/>
				<path class="st1" d="M265.52,69.54h-2.44v-2.98h2.44V69.54z M263.08,72.21h2.44v14.82h-2.44V72.21z"/>
				<path class="st1" d="M269.1,66.56h2.44v20.46h-2.44V66.56z"/>
				<path class="st1" d="M288.99,71.87c4.7,0,7.19,3.41,7.19,7.76c0,4.33-2.49,7.74-7.19,7.74c-4.7,0-7.19-3.41-7.19-7.74
					C281.79,75.28,284.29,71.87,288.99,71.87z M288.99,85.22c2.55,0,4.61-2.01,4.61-5.59c0-3.61-2.06-5.61-4.61-5.61
					c-2.55,0-4.61,2-4.61,5.61C284.37,83.21,286.44,85.22,288.99,85.22z"/>
				<path class="st1" d="M299.71,74.36h-2.49v-2.15h2.49V70c0-2.41,1.43-3.67,4.1-3.67c0.46,0,1.12,0.09,1.57,0.23v2.12
					c-0.43-0.14-0.95-0.2-1.37-0.2c-1.18,0-1.86,0.37-1.86,1.66v2.06h2.87v2.15h-2.87v12.67h-2.43V74.36z"/>
				<path class="st1" d="M314.87,66.56h14.13v2.29h-11.41v6.51h10.63v2.29h-10.63v7.08h11.49v2.29h-14.21V66.56z"/>
				<path class="st1" d="M343.9,87.03h-2.29v-2.35h-0.06c-1.03,1.83-2.69,2.69-4.81,2.69c-3.9,0-5.1-2.23-5.1-5.42v-9.74h2.43v10.03
					c0,1.8,1.15,2.98,3.01,2.98c2.95,0,4.38-1.98,4.38-4.64v-8.37h2.44V87.03z"/>
			</g>
			<g>
				<path class="st1" d="M347.13,72.21h2.29v3.12h0.06c1.17-2.38,2.81-3.55,5.45-3.47v2.58c-3.93,0-5.36,2.23-5.36,5.99v6.59h-2.44
					V72.21z"/>
			</g>
			<g>
				<path class="st1" d="M362.3,71.87c4.7,0,7.19,3.41,7.19,7.76c0,4.33-2.49,7.74-7.19,7.74c-4.7,0-7.19-3.41-7.19-7.74
					C355.11,75.28,357.6,71.87,362.3,71.87z M362.3,85.22c2.55,0,4.61-2.01,4.61-5.59c0-3.61-2.06-5.61-4.61-5.61
					c-2.55,0-4.61,2-4.61,5.61C357.69,83.21,359.75,85.22,362.3,85.22z"/>
				<path class="st1" d="M372.1,72.21h2.44v2.01h0.06c0.8-1.63,2.7-2.35,4.73-2.35c4.56,0,6.82,3.61,6.82,7.8
					c0,4.18-2.23,7.71-6.76,7.71c-1.52,0-3.7-0.58-4.79-2.32h-0.06v7.65h-2.44V72.21z M378.98,74.02c-3.27,0-4.53,2.81-4.53,5.59
					c0,2.92,1.32,5.62,4.67,5.62c3.33,0,4.44-2.84,4.44-5.73C383.57,76.71,382.13,74.02,378.98,74.02z"/>
				<path class="st1" d="M401.3,82.32c-0.66,3.27-3.01,5.04-6.33,5.04c-4.73,0-6.96-3.27-7.11-7.8c0-4.44,2.92-7.71,6.96-7.71
					c5.25,0,6.85,4.9,6.71,8.48h-11.09c-0.09,2.58,1.38,4.87,4.61,4.87c2,0,3.41-0.98,3.84-2.89H401.3z M398.96,78.2
					c-0.12-2.32-1.86-4.18-4.27-4.18c-2.55,0-4.07,1.92-4.24,4.18H398.96z"/>
				<path class="st1" d="M416.84,86.97c-0.43,0.26-0.97,0.4-1.75,0.4c-1.26,0-2.06-0.69-2.06-2.29c-1.35,1.58-3.15,2.29-5.22,2.29
					c-2.69,0-4.9-1.2-4.9-4.16c0-3.35,2.49-4.07,5.02-4.55c2.69-0.52,4.99-0.34,4.99-2.18c0-2.12-1.75-2.46-3.29-2.46
					c-2.06,0-3.58,0.63-3.7,2.81h-2.43c0.14-3.67,2.98-4.96,6.27-4.96c2.67,0,5.56,0.6,5.56,4.07v7.62c0,1.15,0,1.66,0.78,1.66
					c0.2,0,0.43-0.03,0.74-0.14V86.97z M412.88,79.37c-0.95,0.69-2.78,0.72-4.42,1c-1.6,0.28-2.98,0.86-2.98,2.66
					c0,1.61,1.38,2.18,2.87,2.18c3.21,0,4.53-2.01,4.53-3.35V79.37z"/>
				<path class="st1" d="M418.76,72.21h2.29v2.35h0.06c1.03-1.83,2.7-2.69,4.82-2.69c3.9,0,5.1,2.23,5.1,5.42v9.74h-2.43V77
					c0-1.81-1.15-2.98-3.01-2.98c-2.95,0-4.39,1.98-4.39,4.64v8.37h-2.43V72.21z"/>
				<path class="st1" d="M442.37,66.56h8.97c4.07,0,6.27,2.26,6.27,6.04c0,3.78-2.21,6.08-6.27,6.05h-6.25v8.37h-2.72V66.56z
					 M445.09,76.36h5.33c3.07,0.03,4.47-1.32,4.47-3.75c0-2.43-1.4-3.75-4.47-3.75h-5.33V76.36z"/>
			</g>
			<g>
				<path class="st1" d="M460.11,72.21h2.29v3.12h0.06c1.17-2.38,2.81-3.55,5.45-3.47v2.58c-3.93,0-5.36,2.23-5.36,5.99v6.59h-2.44
					V72.21z"/>
			</g>
			<g>
				<path class="st1" d="M475.28,71.87c4.7,0,7.2,3.41,7.2,7.76c0,4.33-2.49,7.74-7.2,7.74c-4.7,0-7.19-3.41-7.19-7.74
					C468.08,75.28,470.58,71.87,475.28,71.87z M475.28,85.22c2.55,0,4.61-2.01,4.61-5.59c0-3.61-2.06-5.61-4.61-5.61
					c-2.55,0-4.61,2-4.61,5.61C470.66,83.21,472.73,85.22,475.28,85.22z"/>
				<path class="st1" d="M486,74.36h-2.49v-2.15H486V70c0-2.41,1.43-3.67,4.1-3.67c0.46,0,1.12,0.09,1.58,0.23v2.12
					c-0.43-0.14-0.95-0.2-1.38-0.2c-1.17,0-1.86,0.37-1.86,1.66v2.06h2.87v2.15h-2.87v12.67H486V74.36z"/>
				<path class="st1" d="M505.77,82.32c-0.66,3.27-3.01,5.04-6.34,5.04c-4.73,0-6.96-3.27-7.11-7.8c0-4.44,2.92-7.71,6.96-7.71
					c5.24,0,6.85,4.9,6.71,8.48h-11.09c-0.09,2.58,1.38,4.87,4.61,4.87c2.01,0,3.41-0.98,3.84-2.89H505.77z M503.42,78.2
					c-0.11-2.32-1.86-4.18-4.27-4.18c-2.55,0-4.07,1.92-4.24,4.18H503.42z"/>
				<path class="st1" d="M509.67,82.35c0.09,2.18,1.98,2.87,3.98,2.87c1.52,0,3.58-0.34,3.58-2.21c0-1.89-2.41-2.21-4.84-2.75
					c-2.41-0.54-4.84-1.35-4.84-4.18c0-2.98,2.95-4.21,5.53-4.21c3.27,0,5.88,1.03,6.08,4.64h-2.43c-0.17-1.89-1.84-2.49-3.44-2.49
					c-1.46,0-3.15,0.4-3.15,1.89c0,1.75,2.58,2.03,4.84,2.58c2.44,0.54,4.84,1.35,4.84,4.21c0,3.53-3.3,4.67-6.31,4.67
					c-3.32,0-6.13-1.35-6.28-5.02H509.67z"/>
				<path class="st1" d="M523.65,82.35c0.09,2.18,1.98,2.87,3.98,2.87c1.52,0,3.58-0.34,3.58-2.21c0-1.89-2.41-2.21-4.84-2.75
					c-2.41-0.54-4.84-1.35-4.84-4.18c0-2.98,2.95-4.21,5.53-4.21c3.27,0,5.88,1.03,6.08,4.64h-2.43c-0.17-1.89-1.83-2.49-3.44-2.49
					c-1.46,0-3.15,0.4-3.15,1.89c0,1.75,2.58,2.03,4.84,2.58c2.44,0.54,4.84,1.35,4.84,4.21c0,3.53-3.3,4.67-6.3,4.67
					c-3.33,0-6.13-1.35-6.28-5.02H523.65z"/>
				<path class="st1" d="M538.73,69.54h-2.44v-2.98h2.44V69.54z M536.29,72.21h2.44v14.82h-2.44V72.21z"/>
				<path class="st1" d="M548.56,71.87c4.7,0,7.19,3.41,7.19,7.76c0,4.33-2.49,7.74-7.19,7.74c-4.7,0-7.19-3.41-7.19-7.74
					C541.36,75.28,543.86,71.87,548.56,71.87z M548.56,85.22c2.55,0,4.61-2.01,4.61-5.59c0-3.61-2.06-5.61-4.61-5.61
					c-2.55,0-4.61,2-4.61,5.61C543.94,83.21,546.01,85.22,548.56,85.22z"/>
				<path class="st1" d="M558.27,72.21h2.29v2.35h0.06c1.03-1.83,2.7-2.69,4.82-2.69c3.9,0,5.1,2.23,5.1,5.42v9.74h-2.44V77
					c0-1.81-1.15-2.98-3.01-2.98c-2.95,0-4.39,1.98-4.39,4.64v8.37h-2.43V72.21z"/>
				<path class="st1" d="M586.99,86.97c-0.43,0.26-0.97,0.4-1.75,0.4c-1.26,0-2.06-0.69-2.06-2.29c-1.35,1.58-3.15,2.29-5.22,2.29
					c-2.69,0-4.9-1.2-4.9-4.16c0-3.35,2.49-4.07,5.02-4.55c2.69-0.52,4.99-0.34,4.99-2.18c0-2.12-1.75-2.46-3.29-2.46
					c-2.07,0-3.58,0.63-3.7,2.81h-2.44c0.14-3.67,2.98-4.96,6.28-4.96c2.67,0,5.56,0.6,5.56,4.07v7.62c0,1.15,0,1.66,0.78,1.66
					c0.2,0,0.43-0.03,0.74-0.14V86.97z M583.03,79.37c-0.95,0.69-2.78,0.72-4.41,1c-1.6,0.28-2.98,0.86-2.98,2.66
					c0,1.61,1.38,2.18,2.87,2.18c3.21,0,4.53-2.01,4.53-3.35V79.37z"/>
				<path class="st1" d="M589.05,66.56h2.44v20.46h-2.44V66.56z"/>
			</g>
			<g>
				<path class="st1" d="M180.77,98.29h2.72v20.46h-2.72V98.29z"/>
				<path class="st1" d="M188.03,103.94h2.29v2.35h0.06c1.03-1.83,2.69-2.7,4.81-2.7c3.9,0,5.1,2.24,5.1,5.42v9.74h-2.44v-10.03
					c0-1.81-1.15-2.98-3.01-2.98c-2.95,0-4.38,1.98-4.38,4.65v8.37h-2.44V103.94z"/>
				<path class="st1" d="M205.31,106.09h-2.49v-2.15h2.49v-2.21c0-2.41,1.43-3.67,4.1-3.67c0.46,0,1.12,0.09,1.58,0.23v2.12
					c-0.43-0.14-0.95-0.2-1.38-0.2c-1.18,0-1.86,0.37-1.86,1.66v2.06h2.87v2.15h-2.87v12.67h-2.44V106.09z"/>
				<path class="st1" d="M219.52,103.59c4.7,0,7.19,3.41,7.19,7.76c0,4.33-2.49,7.74-7.19,7.74c-4.7,0-7.19-3.41-7.19-7.74
					C212.33,107,214.82,103.59,219.52,103.59z M219.52,116.95c2.55,0,4.61-2.01,4.61-5.59c0-3.61-2.06-5.62-4.61-5.62
					s-4.61,2.01-4.61,5.62C214.91,114.94,216.97,116.95,219.52,116.95z"/>
				<path class="st1" d="M229.84,103.94h2.29v3.12h0.06c1.17-2.38,2.81-3.55,5.44-3.47v2.58c-3.93,0-5.36,2.24-5.36,5.99v6.59h-2.44
					V103.94z"/>
				<path class="st1" d="M239.81,103.94h2.29v2.18h0.06c1.09-1.66,2.75-2.52,4.79-2.52c1.81,0,3.47,0.72,4.07,2.52
					c1-1.58,2.75-2.52,4.64-2.52c2.95,0,4.93,1.23,4.93,4.3v10.86h-2.44v-9.71c0-1.84-0.49-3.3-2.86-3.3
					c-2.35,0-3.87,1.49-3.87,3.79v9.23h-2.44v-9.71c0-1.92-0.6-3.3-2.78-3.3c-2.9,0-3.95,2.67-3.95,3.79v9.23h-2.44V103.94z"/>
				<path class="st1" d="M277.73,118.69c-0.43,0.26-0.98,0.4-1.75,0.4c-1.26,0-2.06-0.69-2.06-2.29c-1.35,1.58-3.15,2.29-5.22,2.29
					c-2.69,0-4.9-1.2-4.9-4.16c0-3.35,2.49-4.07,5.02-4.55c2.69-0.52,4.99-0.34,4.99-2.18c0-2.12-1.75-2.47-3.3-2.47
					c-2.06,0-3.58,0.63-3.7,2.81h-2.44c0.14-3.67,2.98-4.96,6.28-4.96c2.66,0,5.56,0.6,5.56,4.07v7.62c0,1.15,0,1.66,0.77,1.66
					c0.2,0,0.43-0.03,0.75-0.14V118.69z M273.77,111.1c-0.95,0.69-2.78,0.72-4.41,1c-1.6,0.28-2.98,0.86-2.98,2.66
					c0,1.61,1.38,2.18,2.86,2.18c3.21,0,4.53-2.01,4.53-3.35V111.1z"/>
				<path class="st1" d="M283.72,103.94h2.95v2.15h-2.95v9.2c0,1.12,0.31,1.32,1.83,1.32h1.12v2.15h-1.86
					c-2.52,0-3.52-0.52-3.52-3.24v-9.43h-2.52v-2.15h2.52V99.5h2.44V103.94z"/>
				<path class="st1" d="M292.28,101.27h-2.44v-2.98h2.44V101.27z M289.85,103.94h2.44v14.82h-2.44V103.94z"/>
				<path class="st1" d="M306.47,108.7c-0.37-1.86-1.66-2.96-3.67-2.96c-3.52,0-4.61,2.78-4.61,5.79c0,2.72,1.23,5.42,4.33,5.42
					c2.35,0,3.75-1.38,4.07-3.61h2.49c-0.54,3.61-2.81,5.76-6.54,5.76c-4.53,0-6.93-3.15-6.93-7.57c0-4.44,2.29-7.94,6.99-7.94
					c3.35,0,6.05,1.58,6.39,5.1H306.47z"/>
				<path class="st1" d="M313.63,114.08c0.09,2.18,1.98,2.87,3.98,2.87c1.52,0,3.58-0.34,3.58-2.21c0-1.89-2.41-2.21-4.84-2.75
					c-2.41-0.54-4.84-1.35-4.84-4.18c0-2.98,2.95-4.21,5.53-4.21c3.26,0,5.87,1.03,6.07,4.64h-2.44c-0.17-1.89-1.83-2.5-3.44-2.5
					c-1.46,0-3.15,0.4-3.15,1.9c0,1.75,2.58,2.04,4.84,2.58c2.44,0.54,4.84,1.35,4.84,4.21c0,3.53-3.29,4.67-6.3,4.67
					c-3.32,0-6.13-1.35-6.28-5.02H313.63z"/>
				<path class="st1" d="M347.36,104.28c-0.31-2.92-2.26-4.19-5.07-4.19c-2.29,0-4.59,0.83-4.59,3.5c0,2.52,3.27,2.9,6.56,3.64
					c3.27,0.75,6.54,1.89,6.54,5.9c0,4.35-4.27,6.11-8,6.11c-4.59,0-8.45-2.23-8.45-7.23h2.58c0,3.44,2.87,4.93,5.96,4.93
					c2.46,0,5.19-0.77,5.19-3.73c0-2.81-3.27-3.29-6.53-4.01c-3.27-0.71-6.56-1.66-6.56-5.42c0-4.15,3.7-5.99,7.42-5.99
					c4.18,0,7.37,1.98,7.54,6.48H347.36z"/>
				<path class="st1" d="M360.43,103.59c4.7,0,7.19,3.41,7.19,7.76c0,4.33-2.49,7.74-7.19,7.74s-7.19-3.41-7.19-7.74
					C353.24,107,355.73,103.59,360.43,103.59z M360.43,116.95c2.55,0,4.62-2.01,4.62-5.59c0-3.61-2.07-5.62-4.62-5.62
					s-4.62,2.01-4.62,5.62C355.82,114.94,357.88,116.95,360.43,116.95z"/>
				<path class="st1" d="M380.89,108.7c-0.37-1.86-1.66-2.96-3.67-2.96c-3.52,0-4.61,2.78-4.61,5.79c0,2.72,1.23,5.42,4.33,5.42
					c2.35,0,3.75-1.38,4.07-3.61h2.49c-0.55,3.61-2.81,5.76-6.54,5.76c-4.53,0-6.93-3.15-6.93-7.57c0-4.44,2.29-7.94,6.99-7.94
					c3.35,0,6.05,1.58,6.39,5.1H380.89z"/>
				<path class="st1" d="M389.15,101.27h-2.44v-2.98h2.44V101.27z M386.71,103.94h2.44v14.82h-2.44V103.94z"/>
				<path class="st1" d="M405.91,114.05c-0.66,3.27-3.01,5.05-6.33,5.05c-4.73,0-6.96-3.27-7.11-7.8c0-4.44,2.92-7.71,6.96-7.71
					c5.25,0,6.85,4.9,6.71,8.48h-11.09c-0.08,2.58,1.38,4.87,4.61,4.87c2,0,3.41-0.98,3.84-2.9H405.91z M403.56,109.93
					c-0.12-2.32-1.86-4.19-4.27-4.19c-2.55,0-4.07,1.92-4.24,4.19H403.56z"/>
				<path class="st1" d="M412.39,103.94h2.95v2.15h-2.95v9.2c0,1.12,0.32,1.32,1.83,1.32h1.12v2.15h-1.86
					c-2.52,0-3.53-0.52-3.53-3.24v-9.43h-2.52v-2.15h2.52V99.5h2.44V103.94z"/>
				<path class="st1" d="M420.96,101.27h-2.44v-2.98h2.44V101.27z M418.52,103.94h2.44v14.82h-2.44V103.94z"/>
				<path class="st1" d="M437.72,114.05c-0.66,3.27-3.01,5.05-6.33,5.05c-4.73,0-6.96-3.27-7.11-7.8c0-4.44,2.92-7.71,6.96-7.71
					c5.24,0,6.85,4.9,6.7,8.48h-11.09c-0.09,2.58,1.37,4.87,4.61,4.87c2.01,0,3.41-0.98,3.84-2.9H437.72z M435.37,109.93
					c-0.11-2.32-1.86-4.19-4.27-4.19c-2.55,0-4.07,1.92-4.24,4.19H435.37z"/>
				<path class="st1" d="M442.31,114.08c0.09,2.18,1.98,2.87,3.98,2.87c1.52,0,3.58-0.34,3.58-2.21c0-1.89-2.41-2.21-4.84-2.75
					c-2.41-0.54-4.84-1.35-4.84-4.18c0-2.98,2.95-4.21,5.53-4.21c3.27,0,5.88,1.03,6.08,4.64h-2.43c-0.17-1.89-1.84-2.5-3.44-2.5
					c-1.46,0-3.15,0.4-3.15,1.9c0,1.75,2.58,2.04,4.84,2.58c2.44,0.54,4.84,1.35,4.84,4.21c0,3.53-3.3,4.67-6.31,4.67
					c-3.32,0-6.13-1.35-6.27-5.02H442.31z"/>
			</g>
		</g>
	</g>
</g>
</svg>
